<svg aria-hidden="true" style="position: absolute; width: 0; height: 0; overflow: hidden;" version="1.1" xmlns="http://www.w3.org/2000/svg" xmlns:xlink="http://www.w3.org/1999/xlink">
	<defs>
		<symbol viewBox="0 0 25 25" id="facebook">
			<g clip-path="url(#clip0)">
				<path d="M16.664 4.151h2.282V.176C18.552.122 17.198 0 15.62 0c-3.29 0-5.545 2.07-5.545 5.874v3.501h-3.63v4.444h3.631V25h4.452V13.82h3.484l.554-4.444h-4.039V6.315c.001-1.285.347-2.164 2.137-2.164z">
				</path>
			</g>
			<defs>
				<clipPath id="clip0">
					<path d="M0 0h25v25H0z">
					</path>
				</clipPath>
			</defs>
		</symbol>
		<symbol viewBox="0 0 24 24" id="instagram">
			<g clip-path="url(#clip0)">
				<path d="M23.977 7.056c-.057-1.275-.263-2.152-.558-2.912a5.857 5.857 0 00-1.388-2.128A5.905 5.905 0 0019.907.633C19.143.338 18.27.13 16.995.075 15.711.015 15.303 0 12.046 0 8.785 0 8.377.014 7.097.07c-1.274.057-2.151.263-2.91.558a5.856 5.856 0 00-2.129 1.388A5.909 5.909 0 00.675 4.14C.38 4.904.173 5.776.117 7.05.057 8.336.042 8.744.042 12.002c0 3.259.014 3.667.07 4.947.057 1.275.263 2.151.559 2.911a5.918 5.918 0 001.387 2.129 5.9 5.9 0 002.124 1.383c.764.295 1.636.501 2.912.558 1.28.056 1.687.07 4.946.07 3.258 0 3.666-.014 4.946-.07 1.275-.057 2.152-.263 2.912-.558a6.139 6.139 0 003.511-3.512c.296-.764.502-1.636.558-2.911.056-1.28.07-1.688.07-4.947 0-3.258-.004-3.666-.06-4.946zm-2.162 9.799c-.051 1.172-.248 1.805-.412 2.227a3.981 3.981 0 01-2.279 2.278c-.422.165-1.06.361-2.227.413-1.266.056-1.645.07-4.848.07-3.202 0-3.586-.014-4.848-.07-1.172-.052-1.805-.248-2.227-.413a3.693 3.693 0 01-1.378-.895 3.73 3.73 0 01-.896-1.378c-.164-.422-.36-1.06-.412-2.227-.056-1.266-.07-1.646-.07-4.848 0-3.203.014-3.587.07-4.848.051-1.172.248-1.805.412-2.227.193-.52.497-.994.9-1.379a3.726 3.726 0 011.38-.895c.421-.164 1.059-.36 2.226-.413 1.266-.056 1.646-.07 4.848-.07 3.207 0 3.586.014 4.848.07 1.172.052 1.805.249 2.227.413.52.192.994.497 1.378.895.399.39.703.858.896 1.379.164.422.36 1.06.412 2.227.056 1.266.07 1.645.07 4.848 0 3.202-.014 3.577-.07 4.843z">
				</path>
				<path d="M12.044 5.837a6.167 6.167 0 00-6.165 6.165 6.167 6.167 0 006.165 6.166 6.167 6.167 0 006.166-6.166 6.167 6.167 0 00-6.166-6.165zm0 10.165a4 4 0 11.002-8 4 4 0 01-.002 8zm7.849-10.409a1.44 1.44 0 11-2.879 0 1.44 1.44 0 012.879 0z">
				</path>
			</g>
			<defs>
				<clipPath id="clip0">
					<path d="M0 0h24v24H0z">
					</path>
				</clipPath>
			</defs>
		</symbol>
		<symbol viewBox="0 0 24 24" id="pinterest">
			<g clip-path="url(#clip0)">
				<path d="M12.326 0C5.747.001 2.25 4.216 2.25 8.812c0 2.131 1.191 4.79 3.098 5.633.544.245.472-.054.94-1.844a.425.425 0 00-.102-.417c-2.726-3.153-.532-9.635 5.751-9.635 9.093 0 7.394 12.582 1.582 12.582-1.498 0-2.614-1.176-2.261-2.631.428-1.733 1.266-3.596 1.266-4.845 0-3.148-4.69-2.681-4.69 1.49 0 1.289.456 2.159.456 2.159S6.781 17.4 6.501 18.539c-.474 1.928.064 5.049.111 5.318.029.148.195.195.288.073.149-.195 1.973-2.797 2.484-4.678.186-.685.949-3.465.949-3.465.503.908 1.953 1.668 3.498 1.668 4.596 0 7.918-4.04 7.918-9.053C21.733 3.596 17.62 0 12.326 0z">
				</path>
			</g>
			<defs>
				<clipPath id="clip0">
					<path d="M0 0h24v24H0z">
					</path>
				</clipPath>
			</defs>
		</symbol>
		<symbol id="chevron-circle-up" viewBox="0 0 512 512">
			<path d="M8 256C8 119 119 8 256 8s248 111 248 248-111 248-248 248S8 393 8 256zm231-113.9L103.5 277.6c-9.4 9.4-9.4 24.6 0 33.9l17 17c9.4 9.4 24.6 9.4 33.9 0L256 226.9l101.6 101.6c9.4 9.4 24.6 9.4 33.9 0l17-17c9.4-9.4 9.4-24.6 0-33.9L273 142.1c-9.4-9.4-24.6-9.4-34 0z">
			</path>
		</symbol>
	</defs>
</svg>
